<?xml version="1.0" encoding="iso-8859-1"?>
<!-- Generator: Adobe Illustrator 19.0.0, SVG Export Plug-In . SVG Version: 6.00 Build 0)  -->
<svg version="1.1" id="Capa_1" xmlns="http://www.w3.org/2000/svg" xmlns:xlink="http://www.w3.org/1999/xlink" x="0px" y="0px"
	 viewBox="0 0 405.42 405.42" style="enable-background:new 0 0 405.42 405.42;" xml:space="preserve">
<path style="fill:#1185E0;" d="M310.024,405.42H94.775c-25.6,0-45.976-19.853-47.02-44.931
	c-3.135-69.486-9.927-237.714-9.927-239.804c0-4.18,1.567-8.359,4.18-11.494c3.135-3.135,6.792-4.702,11.494-4.702H351.82
	c4.18,0,8.359,1.567,11.494,4.702c3.135,3.135,4.702,7.314,4.18,11.494L357.044,360.49
	C355.999,385.567,335.624,405.42,310.024,405.42z M69.697,135.837c1.567,44.408,6.792,166.661,9.404,223.608
	c0,8.359,7.314,14.629,15.673,14.629h215.249c8.359,0,15.673-6.792,15.673-14.629l9.927-223.608H69.697z"/>
<path style="fill:#4DCFE0;" d="M278.155,223.608c-8.882,0-15.673-6.792-15.673-15.673V91.429c0-32.914-27.167-60.082-60.082-60.082
	s-60.082,27.167-60.082,60.082v116.506c0,8.882-6.792,15.673-15.673,15.673s-15.673-6.792-15.673-15.673V91.429
	C110.971,41.273,152.244,0,202.399,0s91.429,41.273,91.429,91.429v116.506C293.828,216.816,287.036,223.608,278.155,223.608z"/>
<g>
</g>
<g>
</g>
<g>
</g>
<g>
</g>
<g>
</g>
<g>
</g>
<g>
</g>
<g>
</g>
<g>
</g>
<g>
</g>
<g>
</g>
<g>
</g>
<g>
</g>
<g>
</g>
<g>
</g>
</svg>
