<?xml version="1.0" encoding="iso-8859-1"?>
<!-- Generator: Adobe Illustrator 19.0.0, SVG Export Plug-In . SVG Version: 6.00 Build 0)  -->
<svg version="1.1" id="Capa_1" xmlns="http://www.w3.org/2000/svg" xmlns:xlink="http://www.w3.org/1999/xlink" x="0px" y="0px"
	 viewBox="0 0 384 384" style="enable-background:new 0 0 384 384;fill: #f8d21b" xml:space="preserve">
<g>
	<g>
		<path d="M129.808,177.272H16c-8.832,0-16,7.168-16,16c0,8.832,7.168,16,16,16h113.808c8.832,0,16-7.168,16-16
			C145.808,184.44,138.64,177.272,129.808,177.272z"/>
	</g>
</g>
<g>
	<g>
		<path d="M129.808,227.728H42.392c-8.832,0-16,7.168-16,16c0,8.832,7.168,16,16,16h87.416c8.832,0,16-7.16,16-16
			C145.808,234.896,138.64,227.728,129.808,227.728z"/>
	</g>
</g>
<g>
	<g>
		<path d="M383.36,83.76c-0.04-0.152-0.016-0.304-0.064-0.456c-0.048-0.16-0.16-0.272-0.208-0.432
			c-0.488-1.44-1.128-2.808-1.992-4.024c-0.112-0.16-0.248-0.288-0.368-0.448c-0.824-1.096-1.792-2.064-2.864-2.912
			c-0.2-0.152-0.368-0.328-0.576-0.472c-1.176-0.848-2.48-1.504-3.864-2.008c-0.288-0.104-0.576-0.184-0.872-0.272
			C371.104,72.304,369.592,72,368,72H86.64c-1.592,0-3.104,0.304-4.56,0.736c-0.296,0.088-0.584,0.168-0.872,0.272
			c-1.384,0.504-2.688,1.168-3.864,2.008c-0.2,0.144-0.376,0.32-0.576,0.472c-1.072,0.848-2.04,1.816-2.864,2.912
			c-0.12,0.152-0.256,0.288-0.368,0.448c-0.856,1.224-1.496,2.584-1.992,4.024c-0.056,0.152-0.168,0.272-0.208,0.432
			c-0.048,0.152-0.024,0.304-0.064,0.456c-0.376,1.36-0.64,2.76-0.64,4.24v52.352c0,8.832,7.168,16,16,16c8.832,0,16-7.168,16-16
			v-22.184l115.712,78.408c2.712,1.832,5.84,2.752,8.976,2.752c3.136,0,6.264-0.92,8.976-2.752L352,118.176V280H86.64
			c-8.832,0-16,7.168-16,16c0,8.832,7.168,16,16,16H368c8.832,0,16-7.168,16-16V88C384,86.52,383.736,85.12,383.36,83.76z
			 M227.328,164l-88.552-60h177.096L227.328,164z"/>
	</g>
</g>
<g>
	<g>
		<path d="M315.008,193.192c-8.832,0-16,7.168-16,16v18.536h-19.04c-8.832,0-16,7.168-16,16c0,8.832,7.168,16,16,16h35.04
			c8.832,0,16-7.168,16-16v-34.536C331.008,200.36,323.84,193.192,315.008,193.192z"/>
	</g>
</g>
<g>
</g>
<g>
</g>
<g>
</g>
<g>
</g>
<g>
</g>
<g>
</g>
<g>
</g>
<g>
</g>
<g>
</g>
<g>
</g>
<g>
</g>
<g>
</g>
<g>
</g>
<g>
</g>
<g>
</g>
</svg>
