<?xml version="1.0" encoding="iso-8859-1"?>
<!-- Generator: Adobe Illustrator 19.0.0, SVG Export Plug-In . SVG Version: 6.00 Build 0)  -->
<svg version="1.1" id="Capa_1" xmlns="http://www.w3.org/2000/svg" xmlns:xlink="http://www.w3.org/1999/xlink" x="0px" y="0px"
	 viewBox="0 0 480 480" style="enable-background:new 0 0 480 480;fill: #00cc44;" xml:space="preserve">
<g>
	<g>
		<path d="M0,32v352h416V32H0z M384,352H32v-87.68L110.88,320l176-96L384,296.8V352z M384,261.6l-94.56-71.04l-176,96L32,230.08V64
			h352V261.6z"/>
	</g>
</g>
<g>
	<g>
		<polygon points="448,96 448,416 64,416 64,448 480,448 480,96 		"/>
	</g>
</g>
<g>
	<g>
		<path d="M104,96c-22.091,0-40,17.909-40,40s17.909,40,40,40s40-17.909,40-40S126.091,96,104,96z M104.319,154.239
			c-9.985,0.088-18.151-7.935-18.239-17.92c-0.001-0.106-0.001-0.212,0-0.319c0.087-9.861,8.059-17.833,17.92-17.92
			c9.985-0.088,18.151,7.935,18.239,17.92C122.327,145.985,114.304,154.151,104.319,154.239z"/>
	</g>
</g>
<g>
</g>
<g>
</g>
<g>
</g>
<g>
</g>
<g>
</g>
<g>
</g>
<g>
</g>
<g>
</g>
<g>
</g>
<g>
</g>
<g>
</g>
<g>
</g>
<g>
</g>
<g>
</g>
<g>
</g>
</svg>
