<?xml version="1.0" encoding="iso-8859-1"?>
<!-- Generator: Adobe Illustrator 19.0.0, SVG Export Plug-In . SVG Version: 6.00 Build 0)  -->
<svg version="1.1" id="Capa_1" xmlns="http://www.w3.org/2000/svg" xmlns:xlink="http://www.w3.org/1999/xlink" x="0px" y="0px"
	 viewBox="0 0 453.486 453.486" style="enable-background:new 0 0 453.486 453.486;" xml:space="preserve">
<g>
	
		<rect x="243.779" y="273.695" transform="matrix(-0.6748 -0.738 0.738 -0.6748 388.5396 749.9464)" style="fill:#1185E0;" width="231.445" height="31.347"/>
	
		<rect x="77.89" y="173.983" transform="matrix(-0.7381 -0.6747 0.6747 -0.7381 -32.6649 566.2098)" style="fill:#1185E0;" width="31.347" height="230.924"/>
</g>
<path style="fill:#4DCFE0;" d="M226.743,251.298c-4.702,0-9.404-1.045-13.584-3.657L7.837,124.343l16.196-26.645l202.71,121.208
	L429.975,97.176l16.196,26.645L240.327,247.118C236.147,249.731,231.445,251.298,226.743,251.298z"/>
<path style="fill:#1185E0;" d="M427.363,390.269H26.122C11.494,390.269,0,378.776,0,364.147V89.339
	C0,74.71,11.494,63.216,26.122,63.216h401.241c14.629,0,26.122,11.494,26.122,26.122v274.808
	C453.486,378.775,441.992,390.269,427.363,390.269z M31.347,358.922h390.792V94.563H31.347V358.922z"/>
<g>
</g>
<g>
</g>
<g>
</g>
<g>
</g>
<g>
</g>
<g>
</g>
<g>
</g>
<g>
</g>
<g>
</g>
<g>
</g>
<g>
</g>
<g>
</g>
<g>
</g>
<g>
</g>
<g>
</g>
</svg>
