<?xml version="1.0" encoding="iso-8859-1"?>
<!-- Generator: Adobe Illustrator 19.0.0, SVG Export Plug-In . SVG Version: 6.00 Build 0)  -->
<svg version="1.1" id="Capa_1" xmlns="http://www.w3.org/2000/svg" xmlns:xlink="http://www.w3.org/1999/xlink" x="0px" y="0px"
	 viewBox="0 0 383.944 383.944" style="enable-background:new 0 0 383.944 383.944;fill: #0fc0c5;" xml:space="preserve">
<g>
	<g>
		<g>
			<rect x="-9.915" y="305.323" transform="matrix(0.7072 -0.707 0.707 0.7072 -208.8352 138.3712)" width="145.119" height="32"/>
			<rect x="122.623" y="277.727" transform="matrix(-0.707 -0.7072 0.7072 -0.707 0.9027 667.0181)" width="32" height="111.191"/>
			<rect x="34.633" y="189.707" transform="matrix(0.7071 0.7071 -0.7071 0.7071 188.2846 36.0448)" width="32" height="111.191"/>
			<path d="M383.937,0l-32.976,10.992l-0.32-0.328l-0.648,0.648L2.449,127.16l176.072,78.256l78.256,176.072L372.625,33.936
				l0.64-0.64l-0.32-0.32L383.937,0z M90.833,131.432l208.568-69.528L187.097,174.216L90.833,131.432z M252.505,293.104
				l-42.784-96.264L322.025,84.536L252.505,293.104z"/>
		</g>
	</g>
</g>
<g>
</g>
<g>
</g>
<g>
</g>
<g>
</g>
<g>
</g>
<g>
</g>
<g>
</g>
<g>
</g>
<g>
</g>
<g>
</g>
<g>
</g>
<g>
</g>
<g>
</g>
<g>
</g>
<g>
</g>
</svg>
