<?xml version="1.0" encoding="iso-8859-1"?>
<!-- Generator: Adobe Illustrator 19.0.0, SVG Export Plug-In . SVG Version: 6.00 Build 0)  -->
<svg version="1.1" id="Capa_1" xmlns="http://www.w3.org/2000/svg" xmlns:xlink="http://www.w3.org/1999/xlink" x="0px" y="0px"
	 viewBox="0 0 459.753 459.753" style="enable-background:new 0 0 459.753 459.753;" xml:space="preserve">
<g>
	<path style="fill:#4DCFE0;" d="M157.78,251.297c-24.033,0-43.886-19.853-43.886-43.886s19.853-43.886,43.886-43.886
		s43.886,19.853,43.886,43.886S181.812,251.297,157.78,251.297z M157.78,194.872c-6.792,0-12.539,5.747-12.539,12.539
		s5.747,12.539,12.539,12.539s12.539-5.747,12.539-12.539C170.318,200.619,164.571,194.872,157.78,194.872z"/>
	<path style="fill:#4DCFE0;" d="M305.633,369.37H80.457c-5.747,0-10.971-3.135-14.106-8.359c-2.612-5.224-2.09-11.494,1.045-16.196
		l46.498-65.829c2.612-3.657,6.269-5.747,9.927-6.269c4.18-0.522,8.359,0.522,11.494,2.612l24.555,17.763l57.469-68.441
		c3.135-3.657,7.837-5.747,13.061-5.747c5.224,0.522,9.404,3.135,12.016,7.314l76.278,119.118
		c3.135,4.702,3.135,10.971,0.522,15.673C316.604,366.236,311.38,369.37,305.633,369.37z M110.759,338.023H277.42l-48.588-76.8
		l-53.29,62.694c-5.224,6.269-14.629,7.314-20.898,2.612l-24.033-16.718L110.759,338.023z"/>
</g>
<path style="fill:#1185E0;" d="M444.082,39.183H83.592c-8.882,0-15.673,6.792-15.673,15.673v57.469H15.673
	C6.792,112.326,0,119.117,0,127.999v276.898c0,8.882,6.792,15.673,15.673,15.673h355.265c8.882,0,15.673-6.792,15.673-15.673V347.95
	h57.469c8.882,0,15.673-6.792,15.673-15.673V54.856C459.755,45.975,452.963,39.183,444.082,39.183z M355.265,389.223H31.347V143.672
	h323.918V389.223z M428.408,316.603h-41.796V127.999c0-8.882-6.792-15.673-15.673-15.673H99.265V70.53h329.143L428.408,316.603
	L428.408,316.603z"/>
<g>
</g>
<g>
</g>
<g>
</g>
<g>
</g>
<g>
</g>
<g>
</g>
<g>
</g>
<g>
</g>
<g>
</g>
<g>
</g>
<g>
</g>
<g>
</g>
<g>
</g>
<g>
</g>
<g>
</g>
</svg>
