<?xml version="1.0" encoding="iso-8859-1"?>
<!-- Generator: Adobe Illustrator 19.0.0, SVG Export Plug-In . SVG Version: 6.00 Build 0)  -->
<svg version="1.1" id="Capa_1" xmlns="http://www.w3.org/2000/svg" xmlns:xlink="http://www.w3.org/1999/xlink" x="0px" y="0px"
	 viewBox="0 0 445.127 445.127" style="enable-background:new 0 0 445.127 445.127;" xml:space="preserve">
<g>
	<path style="fill:#4DCFE0;" d="M429.453,238.237V206.89h-73.665c-1.045-26.645-5.747-51.722-13.061-75.233
		c17.241-10.971,32.914-24.555,46.498-40.751l-23.51-20.376c-10.449,12.016-21.943,22.465-34.482,30.824
		C310.335,56.424,277.42,21.42,234.58,1.045l-6.792,14.629h-10.449l-6.792-14.106c-42.841,20.376-76.278,55.902-96.653,100.833
		c-13.061-8.882-25.078-19.331-35.527-31.347l-23.51,20.376c14.106,16.196,29.78,29.78,47.543,40.751
		c-7.314,22.988-11.494,48.065-13.061,74.71H15.673v31.347h73.665c1.045,26.645,5.747,51.722,13.061,74.71
		c-17.763,10.971-33.959,25.078-47.543,40.751l23.51,20.375c10.449-12.016,22.465-22.465,35.527-31.347
		c20.898,44.931,53.812,79.935,97.176,100.833l6.792-14.106h10.449l6.792,14.106c42.841-20.376,75.755-55.38,96.653-100.31
		c12.539,8.882,24.555,19.331,34.482,30.824l23.51-20.375c-13.584-15.673-29.257-29.257-46.498-40.751
		c7.314-22.988,12.016-48.588,13.061-75.233h73.143V238.237z M324.441,206.89h-86.204v-40.229
		c26.645-2.09,52.767-8.359,76.278-19.331C320.261,165.616,323.396,185.992,324.441,206.89z M304.065,117.551
		c-20.375,9.927-42.841,15.673-65.829,17.763V39.706C266.449,57.992,288.914,84.637,304.065,117.551z M206.89,39.706v95.608
		c-22.988-2.09-45.453-7.837-65.829-17.241C155.69,84.637,178.155,57.992,206.89,39.706z M130.09,147.331
		c24.033,10.971,49.633,17.241,76.8,19.331v40.229h-86.204C121.731,185.992,124.865,166.139,130.09,147.331z M120.686,238.237
		h86.204v40.229c-26.645,2.09-52.767,8.359-76.8,19.331C124.865,278.988,121.731,259.135,120.686,238.237z M141.061,327.053
		c20.376-9.404,42.841-15.151,65.829-17.241v95.608C178.155,387.135,155.69,360.49,141.061,327.053z M238.237,405.42v-95.608
		c22.988,2.09,45.453,7.837,65.829,17.763C288.914,360.49,266.449,387.135,238.237,405.42z M314.514,297.796
		c-24.033-10.971-49.633-17.241-76.278-19.331v-40.229h86.204C323.396,259.135,320.261,279.51,314.514,297.796z"/>
	<path style="fill:#1185E0;" d="M222.563,445.127C99.788,445.127,0,345.339,0,222.563S99.788,0,222.563,0
		s222.563,99.788,222.563,222.563S345.339,445.127,222.563,445.127z M222.563,31.347c-105.535,0-191.216,85.682-191.216,191.216
		S117.029,413.78,222.563,413.78S413.78,328.098,413.78,222.563S328.098,31.347,222.563,31.347z"/>
</g>
<g>
</g>
<g>
</g>
<g>
</g>
<g>
</g>
<g>
</g>
<g>
</g>
<g>
</g>
<g>
</g>
<g>
</g>
<g>
</g>
<g>
</g>
<g>
</g>
<g>
</g>
<g>
</g>
<g>
</g>
</svg>
