<?xml version="1.0" encoding="iso-8859-1"?>
<!-- Generator: Adobe Illustrator 19.0.0, SVG Export Plug-In . SVG Version: 6.00 Build 0)  -->
<svg version="1.1" id="Capa_1" xmlns="http://www.w3.org/2000/svg" xmlns:xlink="http://www.w3.org/1999/xlink" x="0px" y="0px"
	 viewBox="0 0 495.804 495.804" style="enable-background:new 0 0 495.804 495.804;" xml:space="preserve">
<g>
	<path style="fill:#1185E0;" d="M438.857,218.645c13.584-13.061,21.943-30.825,21.943-50.678c0-38.661-31.869-70.531-70.531-70.531
		s-70.531,31.869-70.531,70.531c0,19.853,8.359,38.139,21.42,50.678c-25.6,13.584-44.931,37.616-52.767,67.396
		c-2.09,8.359,3.135,16.718,11.494,19.331c8.359,2.09,16.718-3.135,19.331-11.494c7.837-30.824,34.482-52.767,65.829-55.38
		c2.09,0,3.657,0.522,5.747,0.522c1.567,0,3.657,0,5.224-0.522c38.139,2.612,68.441,34.482,68.441,73.665v23.51
		c0,8.882,6.792,15.673,15.673,15.673c8.882,0,15.673-6.792,15.673-15.673v-23.51C495.282,271.412,472.294,236.408,438.857,218.645z
		 M351.086,167.967c0-21.42,17.763-39.184,39.184-39.184c21.42,0,39.184,17.763,39.184,39.184c0,19.853-15.151,36.571-34.482,38.661
		c-1.567,0-3.135,0-4.702,0c-1.567,0-3.135,0-4.702,0C366.237,204.539,351.086,187.82,351.086,167.967z"/>
	<path style="fill:#1185E0;" d="M206.367,285.518c-7.314-29.78-27.167-53.29-52.767-66.873
		c13.584-13.061,21.943-30.825,21.943-50.678c0-38.661-31.869-70.531-70.531-70.531s-70.531,31.869-70.531,70.531
		c0,19.853,8.359,38.139,21.943,50.678C22.988,236.408,0,271.412,0,311.641v23.51c0,8.882,6.792,15.673,15.673,15.673
		s15.673-6.792,15.673-15.673v-23.51c0-38.661,30.302-70.531,68.441-73.665c1.567,0,3.657,0.522,5.224,0.522
		c2.09,0,3.657,0,5.747-0.522c31.347,2.612,57.469,24.033,65.306,54.857c2.09,8.359,10.449,13.584,19.331,11.494
		C203.755,302.237,208.457,293.878,206.367,285.518z M65.829,167.967c0-21.42,17.763-39.184,39.184-39.184
		s39.184,17.763,39.184,39.184c0,19.853-15.151,36.571-34.482,38.661c-1.567,0-3.135,0-4.702,0s-3.135,0-4.702,0
		C80.98,204.539,65.829,187.82,65.829,167.967z"/>
</g>
<path style="fill:#4DCFE0;" d="M296.229,266.188c13.584-13.061,21.943-30.825,21.943-50.678c0-38.661-31.869-70.531-70.531-70.531
	s-70.531,31.869-70.531,70.531c0,19.853,8.359,38.139,21.943,50.678c-33.437,17.763-56.424,52.767-56.424,92.996v23.51
	c0,8.882,6.792,15.673,15.673,15.673s15.673-6.792,15.673-15.673v-23.51c0-38.661,30.302-70.531,68.441-73.143
	c1.567,0,3.657,0,5.224,0c1.567,0,3.657,0,5.224,0c38.139,2.612,68.441,34.482,68.441,73.143v23.51
	c0,8.882,6.792,15.673,15.673,15.673s15.673-6.792,15.673-15.673v-23.51C352.653,318.955,329.665,283.951,296.229,266.188z
	 M208.457,215.51c0-21.42,17.763-39.184,39.184-39.184s39.184,17.763,39.184,39.184c0,19.853-15.151,36.571-34.482,38.661
	c-1.567,0-3.135,0-4.702,0c-1.567,0-3.135,0-4.702,0C223.608,252.082,208.457,235.363,208.457,215.51z"/>
<g>
</g>
<g>
</g>
<g>
</g>
<g>
</g>
<g>
</g>
<g>
</g>
<g>
</g>
<g>
</g>
<g>
</g>
<g>
</g>
<g>
</g>
<g>
</g>
<g>
</g>
<g>
</g>
<g>
</g>
</svg>
