<?xml version="1.0" encoding="iso-8859-1"?>
<!-- Generator: Adobe Illustrator 19.0.0, SVG Export Plug-In . SVG Version: 6.00 Build 0)  -->
<svg version="1.1" id="Capa_1" xmlns="http://www.w3.org/2000/svg" xmlns:xlink="http://www.w3.org/1999/xlink" x="0px" y="0px"
	 viewBox="0 0 479.297 479.297" style="enable-background:new 0 0 479.297 479.297;" xml:space="preserve">
<path style="fill:#1185E0;" d="M478.897,455.42l-56.424-180.767c-2.09-6.792-8.359-10.971-15.151-10.971H302.309v31.347h93.518
	l9.927,32.392h-72.62c-8.882,0-15.673,6.792-15.673,15.673c0,8.882,6.792,15.673,15.673,15.673h82.547l7.837,25.078h-181.29
	c-8.882,0-15.673,6.792-15.673,15.673v44.931h-47.543l4.702-79.935c0-4.18-1.045-8.359-4.18-11.494
	c-3.135-3.135-7.314-4.702-11.494-4.702h-98.22l18.286-53.29h94.041v-31.347H76.611c-6.792,0-12.539,4.18-14.629,10.449
	L0.856,454.897c-1.567,4.702-1.045,9.927,2.09,14.106s7.837,6.792,12.539,6.792h448.261c5.225,0,9.927-2.612,12.539-6.269
	S479.942,460.122,478.897,455.42z M59.37,379.142h91.951l-3.657,65.306H37.427L59.37,379.142z M257.901,444.449v-29.257h175.543
	l8.882,29.257H257.901z"/>
<path style="fill:#4DCFE0;" d="M240.66,375.485c-4.702,0-9.404-2.09-12.539-6.269l-99.265-132.702
	c-21.42-29.257-31.869-63.739-29.78-97.176C104.823,63.061,166.995,3.502,240.66,3.502c74.188,0,136.359,59.559,141.584,135.837
	c2.09,33.959-8.359,68.441-29.78,97.176l-99.265,132.702C250.064,373.395,245.362,375.485,240.66,375.485z M240.66,34.849
	c-64.261,0-106.58,54.335-110.237,106.58c-1.567,26.122,6.792,53.29,23.51,76.278l86.727,115.984l86.727-115.984
	c17.241-22.465,25.6-49.633,23.51-76.278C347.762,89.183,305.444,34.849,240.66,34.849z M239.615,192.628
	c-31.869,0-57.992-26.122-57.992-57.992s26.122-57.992,57.992-57.992s57.992,26.122,57.992,57.992S271.484,192.628,239.615,192.628z
	 M239.615,107.991c-15.151,0-26.645,11.494-26.645,26.645c0,14.629,12.016,26.645,26.645,26.645s26.645-12.016,26.645-26.645
	C266.26,119.485,254.766,107.991,239.615,107.991z"/>
<g>
</g>
<g>
</g>
<g>
</g>
<g>
</g>
<g>
</g>
<g>
</g>
<g>
</g>
<g>
</g>
<g>
</g>
<g>
</g>
<g>
</g>
<g>
</g>
<g>
</g>
<g>
</g>
<g>
</g>
</svg>
