<?xml version="1.0" encoding="iso-8859-1"?>
<!-- Generator: Adobe Illustrator 19.0.0, SVG Export Plug-In . SVG Version: 6.00 Build 0)  -->
<svg version="1.1" id="Capa_1" xmlns="http://www.w3.org/2000/svg" xmlns:xlink="http://www.w3.org/1999/xlink" x="0px" y="0px"
	 viewBox="0 0 484.31 484.31" style="enable-background:new 0 0 484.31 484.31;" xml:space="preserve">
<path style="fill:#4DCFE0;" d="M389.486,14.629c-36.049,0-65.306,29.257-65.306,65.306c0,9.927,2.612,19.853,6.792,28.212
	l-42.318,31.347l18.286,25.078l43.886-32.392c10.971,7.837,24.033,13.061,38.661,13.061c36.049,0,65.306-29.257,65.306-65.306
	S425.535,14.629,389.486,14.629z M389.486,113.894c-18.808,0-33.959-15.151-33.959-33.959s15.151-33.959,33.959-33.959
	c18.808,0,33.959,15.151,33.959,33.959S408.294,113.894,389.486,113.894z"/>
<path style="fill:#4DCFE0;" d="M266.188,354.743l-2.09-80.457l-31.347,1.045l2.09,80.98c-27.167,7.837-46.498,32.914-46.498,62.694
	c0,36.049,29.257,65.306,65.306,65.306s65.306-29.257,65.306-65.306C318.955,387.135,296.49,361.012,266.188,354.743z
	 M253.649,452.963c-18.808,0-33.959-15.151-33.959-33.959c0-18.808,15.151-33.959,33.959-33.959s33.959,15.151,33.959,33.959
	C287.608,437.812,272.457,452.963,253.649,452.963z"/>
<path style="fill:#1185E0;" d="M414.563,221.518c-20.898,0-39.184,9.927-51.2,25.078l-30.824-14.106
	c2.612-8.359,4.18-17.241,4.18-26.645c0-47.02-38.661-85.682-85.682-85.682c-13.584,0-26.645,3.135-38.139,8.882l-21.42-26.122
	c7.314-10.449,12.016-23.51,12.016-37.616C203.494,29.257,174.237,0,138.188,0S72.359,29.78,72.359,65.829
	s29.257,65.306,65.306,65.306c10.971,0,20.898-2.612,29.78-7.314l20.376,24.555c-14.106,15.151-22.465,35.527-22.465,57.469
	c0,6.269,0.522,12.539,2.09,18.808l-43.363,17.763c-11.494-17.763-31.869-29.257-54.335-29.257
	c-36.049,0-65.306,29.257-65.306,65.306s29.257,65.306,65.306,65.306s65.306-29.257,65.306-65.306c0-2.09,0-4.18-0.522-6.792
	l44.931-18.286c15.151,22.988,41.796,38.139,71.053,38.139c26.645,0,50.678-12.539,66.351-31.869l32.914,15.151
	c-0.522,3.657-1.045,7.837-1.045,12.016c0.522,36.049,29.78,65.306,65.829,65.306s65.306-29.257,65.306-65.306
	C479.869,250.775,450.612,221.518,414.563,221.518z M137.665,99.788c-18.808,0-33.959-15.151-33.959-33.959
	s15.151-33.959,33.959-33.959c18.808,0,33.959,15.151,33.959,33.959S156.473,99.788,137.665,99.788z M69.747,312.424
	c-18.808,0-33.959-15.151-33.959-33.959s15.151-33.959,33.959-33.959s33.959,15.151,33.959,33.959S88.555,312.424,69.747,312.424z
	 M251.037,260.18c-29.78,0-54.335-24.555-54.335-54.335s24.555-54.335,54.335-54.335s54.335,24.555,54.335,54.335
	C305.371,235.624,280.816,260.18,251.037,260.18z M414.563,320.784c-18.808,0-33.959-15.151-33.959-33.959
	c0-18.808,15.151-33.959,33.959-33.959s33.959,15.151,33.959,33.959C448.522,305.633,433.371,320.784,414.563,320.784z"/>
<g>
</g>
<g>
</g>
<g>
</g>
<g>
</g>
<g>
</g>
<g>
</g>
<g>
</g>
<g>
</g>
<g>
</g>
<g>
</g>
<g>
</g>
<g>
</g>
<g>
</g>
<g>
</g>
<g>
</g>
</svg>
