<?xml version="1.0" encoding="iso-8859-1"?>
<!-- Generator: Adobe Illustrator 19.0.0, SVG Export Plug-In . SVG Version: 6.00 Build 0)  -->
<svg version="1.1" id="Capa_1" xmlns="http://www.w3.org/2000/svg" xmlns:xlink="http://www.w3.org/1999/xlink" x="0px" y="0px"
	 viewBox="0 0 438.335 438.335" style="enable-background:new 0 0 438.335 438.335;" xml:space="preserve">
<path style="fill:#1185E0;" d="M422.661,438.335H15.673C6.792,438.335,0,431.543,0,422.661V15.673C0,6.792,6.792,0,15.673,0h406.988
	c8.882,0,15.673,6.792,15.673,15.673v406.988C438.335,431.543,431.543,438.335,422.661,438.335z M31.347,406.988h375.641V31.347
	H31.347V406.988z"/>
<g>
	<path style="fill:#4DCFE0;" d="M218.906,226.743H75.233c-8.882,0-15.673-6.792-15.673-15.673V93.518
		c0-8.882,6.792-15.673,15.673-15.673h143.673c8.882,0,15.673,6.792,15.673,15.673v117.551
		C234.58,219.951,227.788,226.743,218.906,226.743z M90.906,195.396h112.327v-86.204H90.906V195.396z"/>
	<path style="fill:#4DCFE0;" d="M352.131,109.192h-73.143c-8.882,0-15.673-6.792-15.673-15.673s6.792-15.673,15.673-15.673h73.143
		c8.882,0,15.673,6.792,15.673,15.673S361.012,109.192,352.131,109.192z"/>
	<path style="fill:#4DCFE0;" d="M352.131,171.886h-73.143c-8.882,0-15.673-6.792-15.673-15.673s6.792-15.673,15.673-15.673h73.143
		c8.882,0,15.673,6.792,15.673,15.673S361.012,171.886,352.131,171.886z"/>
	<path style="fill:#4DCFE0;" d="M352.131,234.58h-73.143c-8.882,0-15.673-6.792-15.673-15.673s6.792-15.673,15.673-15.673h73.143
		c8.882,0,15.673,6.792,15.673,15.673S361.012,234.58,352.131,234.58z"/>
	<path style="fill:#4DCFE0;" d="M352.131,297.273H75.233c-8.882,0-15.673-6.792-15.673-15.673c0-8.882,6.792-15.673,15.673-15.673
		h276.898c8.882,0,15.673,6.792,15.673,15.673C367.804,290.482,361.012,297.273,352.131,297.273z"/>
	<path style="fill:#4DCFE0;" d="M352.131,359.967H75.233c-8.882,0-15.673-6.792-15.673-15.673c0-8.882,6.792-15.673,15.673-15.673
		h276.898c8.882,0,15.673,6.792,15.673,15.673C367.804,353.175,361.012,359.967,352.131,359.967z"/>
</g>
<g>
</g>
<g>
</g>
<g>
</g>
<g>
</g>
<g>
</g>
<g>
</g>
<g>
</g>
<g>
</g>
<g>
</g>
<g>
</g>
<g>
</g>
<g>
</g>
<g>
</g>
<g>
</g>
<g>
</g>
</svg>
