<svg height="384pt" viewBox="0 0 384 384" width="384pt" xmlns="http://www.w3.org/2000/svg"><path d="m320 65.785156v-65.785156h-256v65.785156l-64 54.855469v39.359375c0 24.328125 16.734375 45.023438 40 52.734375v171.265625h304v-171.265625c23.265625-7.710937 40-28.40625 40-52.734375v-39.359375zm-224-33.785156h192v32h-192zm120 320h-48v-64h48zm96 0h-64v-96h-112v96h-64v-137.152344c12.511719-2.382812 23.632812-8.382812 32-16.808594 10.96875 11.039063 26.632812 17.960938 44 17.960938s33.03125-6.921875 44-17.96875c10.96875 11.046875 26.632812 17.96875 44 17.96875s33.03125-6.921875 44-17.96875c8.367188 8.433594 19.488281 14.425781 32 16.808594zm40-192c0 13.230469-12.558594 24-28 24s-28-10.769531-28-24v-32h-32v32c0 13.230469-12.558594 24-28 24s-28-10.769531-28-24v-32h-32v32c0 13.230469-12.558594 24-28 24s-28-10.769531-28-24v-32h-32v32c0 13.230469-12.558594 24-28 24s-28-10.769531-28-24v-24.640625l45.921875-39.359375h228.15625l45.921875 39.359375zm0 0" style="
    fill: #fa3636;"/></svg>